<svg width="641" height="620" viewBox="0 0 641 620" fill="none" xmlns="http://www.w3.org/2000/svg">
<path d="M300.788 618.419V507.583L178.659 389.428V322.994H215.275V374.734L300.749 457.469V389.428L178.659 271.178V138.292L319.077 2.39864L459.49 138.292V389.352L393.184 453.479L367.295 428.422L422.879 374.621V306.579L337.405 389.352V618.381L300.788 618.419ZM215.314 256.503L300.788 339.219V271.178L215.314 188.462V256.503ZM337.444 339.219L422.918 256.503V188.292L337.444 271.027V339.219ZM337.444 145.573V220.989L415.356 145.573L319.316 52.6258L223.277 145.573L301.189 220.951V145.705L337.444 145.573Z" fill="#208E32"/>
</svg>
